<?xml version="1.0" encoding="UTF-8" standalone="no"?>
<!-- Created with Inkscape (http://www.inkscape.org/) -->

<svg
   width="800"
   height="800"
   viewBox="0 0 211.66666 211.66667"
   version="1.1"
   id="svg1"
   sodipodi:docname="father-neutral.svg"
   inkscape:version="1.3.2 (091e20e, 2023-11-25, custom)"
   xmlns:inkscape="http://www.inkscape.org/namespaces/inkscape"
   xmlns:sodipodi="http://sodipodi.sourceforge.net/DTD/sodipodi-0.dtd"
   xmlns="http://www.w3.org/2000/svg"
   xmlns:svg="http://www.w3.org/2000/svg">
  <sodipodi:namedview
     id="namedview1"
     pagecolor="#ffffff"
     bordercolor="#000000"
     borderopacity="0.25"
     inkscape:showpageshadow="2"
     inkscape:pageopacity="0.0"
     inkscape:pagecheckerboard="0"
     inkscape:deskcolor="#d1d1d1"
     inkscape:document-units="mm"
     inkscape:zoom="0.97125"
     inkscape:cx="400"
     inkscape:cy="400"
     inkscape:window-width="1920"
     inkscape:window-height="991"
     inkscape:window-x="-32000"
     inkscape:window-y="-32000"
     inkscape:window-maximized="0"
     inkscape:current-layer="layer1" />
  <defs
     id="defs1" />
  <g
     inkscape:label="Capa 1"
     inkscape:groupmode="layer"
     id="layer1">
    <rect
       style="fill:#00aad4;stroke:#ffcc00;stroke-width:0.264583;stroke-opacity:0"
       id="rect1"
       width="196.47105"
       height="187.2973"
       x="8.7915058"
       y="10.320464"
       rx="22.169872"
       ry="0" />
    <path
       style="fill:#000080;fill-rule:evenodd;stroke-width:0.509993"
       id="path1"
       sodipodi:type="arc"
       sodipodi:cx="108.17365"
       sodipodi:cy="-196.27992"
       sodipodi:rx="78.741417"
       sodipodi:ry="148.88223"
       sodipodi:start="0"
       sodipodi:end="3.1367261"
       sodipodi:open="true"
       sodipodi:arc-type="arc"
       d="M 186.91507,-196.27992 A 78.741417,148.88223 0 0 1 108.36525,-47.398131 78.741417,148.88223 0 0 1 29.433168,-195.55538"
       transform="scale(1,-1)" />
    <path
       style="fill:#000000;fill-rule:evenodd;stroke-width:0.264583"
       id="path2"
       sodipodi:type="arc"
       sodipodi:cx="82.372589"
       sodipodi:cy="111.6139"
       sodipodi:rx="11.276062"
       sodipodi:ry="14.142858"
       sodipodi:start="0"
       sodipodi:end="6.2610287"
       sodipodi:open="true"
       sodipodi:arc-type="arc"
       d="M 93.648651,111.6139 A 11.276062,14.142858 0 0 1 82.435049,125.75654 11.276062,14.142858 0 0 1 71.097219,111.77057 11.276062,14.142858 0 0 1 82.185218,97.472994 11.276062,14.142858 0 0 1 93.645883,111.30057" />
    <path
       style="fill:#000000;fill-rule:evenodd;stroke-width:0.264583"
       id="path2-4"
       sodipodi:type="arc"
       sodipodi:cx="131.96275"
       sodipodi:cy="110.83229"
       sodipodi:rx="11.276062"
       sodipodi:ry="14.142858"
       sodipodi:start="0"
       sodipodi:end="6.2610287"
       sodipodi:open="true"
       sodipodi:arc-type="arc"
       d="m 143.23882,110.83229 a 11.276062,14.142858 0 0 1 -11.21361,14.14264 11.276062,14.142858 0 0 1 -11.33783,-13.98596 11.276062,14.142858 0 0 1 11.088,-14.297584 11.276062,14.142858 0 0 1 11.46067,13.827574" />
    <path
       style="fill:#000000;fill-rule:evenodd;stroke-width:0.275775"
       id="path3"
       sodipodi:type="arc"
       sodipodi:cx="98.341934"
       sodipodi:cy="-136.22629"
       sodipodi:rx="4.3586335"
       sodipodi:ry="5.9744806"
       sodipodi:start="3.1540657"
       sodipodi:end="0.050556738"
       sodipodi:arc-type="slice"
       d="m 93.98364,-136.30081 a 4.3586335,5.9744806 0 0 1 2.274657,-5.17307 4.3586335,5.9744806 0 0 1 4.404273,0.19032 4.3586335,5.9744806 0 0 1 2.03243,5.35919 l -4.353066,-0.30192 z"
       transform="scale(1,-1)" />
    <path
       style="fill:#000000;fill-rule:evenodd;stroke-width:0.275775"
       id="path4"
       sodipodi:type="arc"
       sodipodi:cx="106.78681"
       sodipodi:cy="-134.5918"
       sodipodi:rx="4.3586335"
       sodipodi:ry="7.3365569"
       sodipodi:start="3.2978431"
       sodipodi:end="0.050556738"
       sodipodi:arc-type="slice"
       d="m 102.48128,-135.73348 a 4.3586335,7.3365569 0 0 1 4.75543,-6.15569 4.3586335,7.3365569 0 0 1 3.90317,7.66813 l -4.35307,-0.37076 z"
       transform="scale(1,-1)" />
    <path
       style="fill:#000000;fill-rule:evenodd;stroke-width:0.275775"
       id="path5"
       sodipodi:type="arc"
       sodipodi:cx="114.95927"
       sodipodi:cy="-134.86421"
       sodipodi:rx="4.3586335"
       sodipodi:ry="7.3365569"
       sodipodi:start="3.2978431"
       sodipodi:end="0.050556738"
       sodipodi:arc-type="slice"
       d="m 110.65373,-136.00589 a 4.3586335,7.3365569 0 0 1 4.75543,-6.15569 4.3586335,7.3365569 0 0 1 3.90317,7.66812 l -4.35306,-0.37075 z"
       transform="scale(1,-1)" />
    <rect
       style="fill:#000000;stroke:#ffcc00;stroke-width:0.132605;stroke-opacity:0"
       id="rect5-5"
       width="13.645925"
       height="1.775052"
       x="100.37743"
       y="155.84117"
       rx="0"
       ry="0" />
    <rect
       style="display:none;fill:#000000;stroke:#ffcc00;stroke-width:0.263205;stroke-opacity:0"
       id="rect6"
       width="16.51189"
       height="3.5513611"
       x="100.08898"
       y="155.33392"
       rx="0"
       ry="0" />
    <path
       id="rect7"
       style="stroke:#ffcc00;stroke-width:0.168785;stroke-opacity:0"
       d="m 94.984996,132.57308 23.057334,-0.49902 9.8039,14.80442 H 85.181096 Z"
       sodipodi:nodetypes="ccccc" />
  </g>
</svg>
