<?xml version="1.0" encoding="UTF-8" standalone="no"?>
<!-- Created with Inkscape (http://www.inkscape.org/) -->

<svg
   width="800"
   height="800"
   viewBox="0 0 211.66666 211.66667"
   version="1.1"
   id="svg1"
   xmlns:inkscape="http://www.inkscape.org/namespaces/inkscape"
   xmlns:sodipodi="http://sodipodi.sourceforge.net/DTD/sodipodi-0.dtd"
   xmlns="http://www.w3.org/2000/svg"
   xmlns:svg="http://www.w3.org/2000/svg">
  <sodipodi:namedview
     id="namedview1"
     pagecolor="#ffffff"
     bordercolor="#000000"
     borderopacity="0.25"
     inkscape:showpageshadow="2"
     inkscape:pageopacity="0.0"
     inkscape:pagecheckerboard="0"
     inkscape:deskcolor="#d1d1d1"
     inkscape:document-units="mm" />
  <defs
     id="defs1" />
  <g
     inkscape:label="Capa 1"
     inkscape:groupmode="layer"
     id="layer1">
    <rect
       style="fill:#00aad4;stroke:#ffcc00;stroke-width:0.264583;stroke-opacity:0"
       id="rect1"
       width="196.47105"
       height="187.2973"
       x="8.7915058"
       y="10.320464"
       rx="22.169872"
       ry="0" />
    <path
       style="fill:#000080;fill-rule:evenodd;stroke-width:0.509993"
       id="path1"
       sodipodi:type="arc"
       sodipodi:cx="108.17365"
       sodipodi:cy="-196.27992"
       sodipodi:rx="78.741417"
       sodipodi:ry="148.88223"
       sodipodi:start="0"
       sodipodi:end="3.1367261"
       sodipodi:open="true"
       sodipodi:arc-type="arc"
       d="M 186.91507,-196.27992 A 78.741417,148.88223 0 0 1 108.36525,-47.398131 78.741417,148.88223 0 0 1 29.433168,-195.55538"
       transform="scale(1,-1)" />
    <path
       style="fill:#000000;fill-rule:evenodd;stroke-width:0.264583"
       id="path2"
       sodipodi:type="arc"
       sodipodi:cx="82.372589"
       sodipodi:cy="111.6139"
       sodipodi:rx="11.276062"
       sodipodi:ry="14.142858"
       sodipodi:start="0"
       sodipodi:end="6.2610287"
       sodipodi:open="true"
       sodipodi:arc-type="arc"
       d="M 93.648651,111.6139 A 11.276062,14.142858 0 0 1 82.435049,125.75654 11.276062,14.142858 0 0 1 71.097219,111.77057 11.276062,14.142858 0 0 1 82.185218,97.472994 11.276062,14.142858 0 0 1 93.645883,111.30057" />
    <path
       style="fill:#000000;fill-rule:evenodd;stroke-width:0.264583"
       id="path2-4"
       sodipodi:type="arc"
       sodipodi:cx="131.96275"
       sodipodi:cy="110.83229"
       sodipodi:rx="11.276062"
       sodipodi:ry="14.142858"
       sodipodi:start="0"
       sodipodi:end="6.2610287"
       sodipodi:open="true"
       sodipodi:arc-type="arc"
       d="m 143.23882,110.83229 a 11.276062,14.142858 0 0 1 -11.21361,14.14264 11.276062,14.142858 0 0 1 -11.33783,-13.98596 11.276062,14.142858 0 0 1 11.088,-14.297584 11.276062,14.142858 0 0 1 11.46067,13.827574" />
    <rect
       style="fill:#000000;stroke:#ffcc00;stroke-width:0.264583;stroke-opacity:0"
       id="rect2"
       width="25.227804"
       height="3.8223968"
       x="98.999992"
       y="147.16216"
       rx="0"
       ry="0" />
  </g>
</svg>
